HIERARCHY
ROOT SpineBase
{
  OFFSET 0.000000 0.000000 0.000000
  CHANNELS 6 Xposition Yposition Zposition Zrotation Xrotation Yrotation
  JOINT SpineMid
  {
    OFFSET 0.000000 21.794001 0.000000
    CHANNELS 3 Zrotation Xrotation Yrotation
    JOINT SpineShoulder
    {
      OFFSET -0.007199 16.357191 -0.703159
      CHANNELS 3 Zrotation Xrotation Yrotation
      JOINT Neck
      {
        OFFSET -0.052345 5.440096 -0.475134
        CHANNELS 3 Zrotation Xrotation Yrotation
        JOINT Head
        {
          OFFSET 6.518278 5.580671 -2.650352
          CHANNELS 3 Zrotation Xrotation Yrotation
          End Site
          {
            OFFSET 0 0 0
          }
        }
      }
      JOINT ShoulderLeft
      {
        OFFSET -11.275482 -5.606941 5.992573
        CHANNELS 3 Zrotation Xrotation Yrotation
        JOINT ElbowLeft
        {
          OFFSET 9.613233 -14.195339 -19.328076
          CHANNELS 3 Zrotation Xrotation Yrotation
          JOINT WristLeft
          {
            OFFSET 12.570538 -17.306897 -7.573905
            CHANNELS 3 Zrotation Xrotation Yrotation
            JOINT HandLeft
            {
              OFFSET 0.888680 -2.734578 1.068603
              CHANNELS 3 Zrotation Xrotation Yrotation
              JOINT HandTipLeft
              {
                OFFSET -0.834135 -3.349656 3.115225
                CHANNELS 3 Zrotation Xrotation Yrotation
                End Site
                {
                  OFFSET 0 0 0
                }
              }
              JOINT ThumbLeft
              {
                OFFSET -2.757651 -2.422176 1.444155
                CHANNELS 3 Zrotation Xrotation Yrotation
                End Site
                {
                  OFFSET 0 0 0
                }
              }
            }
          }
        }
      }
      JOINT ShoulderRight
      {
        OFFSET -0.704902 -0.164523 -10.150832
        CHANNELS 3 Zrotation Xrotation Yrotation
        JOINT ElbowRight
        {
          OFFSET 13.551586 -7.994296 18.024885
          CHANNELS 3 Zrotation Xrotation Yrotation
          JOINT WristRight
          {
            OFFSET 14.504024 -7.027272 17.976632
            CHANNELS 3 Zrotation Xrotation Yrotation
            JOINT HandRight
            {
              OFFSET 2.761066 2.586417 5.366980
              CHANNELS 3 Zrotation Xrotation Yrotation
              JOINT HandTipRight
              {
                OFFSET 4.703815 -2.558537 2.114911
                CHANNELS 3 Zrotation Xrotation Yrotation
                End Site
                {
                  OFFSET 0 0 0
                }
              }
              JOINT ThumbRight
              {
                OFFSET -0.696146 -4.990872 -1.103758
                CHANNELS 3 Zrotation Xrotation Yrotation
                End Site
                {
                  OFFSET 0 0 0
                }
              }
            }
          }
        }
      }
    }
  }
  JOINT HipLeft
  {
    OFFSET -6.834198 -1.496078 -2.680432
    CHANNELS 3 Zrotation Xrotation Yrotation
    JOINT KneeLeft
    {
      OFFSET 27.187232 5.165986 -24.048956
      CHANNELS 3 Zrotation Xrotation Yrotation
      JOINT AnkleLeft
      {
        OFFSET -17.560276 1.669409 11.586361
        CHANNELS 3 Zrotation Xrotation Yrotation
        JOINT FootLeft
        {
          OFFSET -4.586695 -3.920665 5.460591
          CHANNELS 3 Zrotation Xrotation Yrotation
          End Site
          {
            OFFSET 0 0 0
          }
        }
      }
    }
  }
  JOINT HipRight
  {
    OFFSET 4.935423 2.970156 -2.301011
    CHANNELS 3 Zrotation Xrotation Yrotation
    JOINT KneeRight
    {
      OFFSET 16.747966 6.969286 -32.917149
      CHANNELS 3 Zrotation Xrotation Yrotation
      JOINT AnkleRight
      {
        OFFSET -10.556672 -20.322106 -9.492962
        CHANNELS 3 Zrotation Xrotation Yrotation
        JOINT FootRight
        {
          OFFSET -2.007677 1.302351 9.179363
          CHANNELS 3 Zrotation Xrotation Yrotation
          End Site
          {
            OFFSET 0 0 0
          }
        }
      }
    }
  }
}
MOTION
Frames: 12
Frame Time: 0.033333
147.058465 15.295740 367.415464 -0.000000 0.000000 -1.846423 -0.000000 0.000000 1.846423 -0.000000 0.000000 0.000000 -0.000000 0.000000 0.000000 0.000000 0.000000 0.000000 -0.000000 0.000000 0.000000 -0.000000 0.000000 0.000000 -0.000000 0.000000 0.000000 -0.000000 0.000000 0.000000 0.000000 0.000000 0.000000 0.000000 0.000000 0.000000 -0.000000 0.000000 0.000000 -0.000000 0.000000 0.000000 -0.000000 0.000000 0.000000 -0.000000 0.000000 0.000000 0.000000 0.000000 0.000000 0.000000 0.000000 0.000000 -0.000000 0.000000 1.846423 -0.000000 0.000000 0.000000 -0.000000 0.000000 0.000000 0.000000 0.000000 0.000000 -0.000000 0.000000 1.846423 -0.000000 0.000000 0.000000 -0.000000 0.000000 0.000000 0.000000 0.000000 0.000000
146.910800 15.075252 367.826401 -0.536021 -1.054028 -2.845796 0.192885 0.295199 2.825333 0.010267 -0.051033 -0.021426 0.915490 1.883835 -0.949178 0.000000 0.000000 0.000000 0.317938 0.819995 0.033404 -0.000000 0.000000 0.000000 0.306472 3.282824 1.190373 -0.831319 0.606760 -2.731569 0.000000 0.000000 0.000000 0.000000 0.000000 0.000000 1.632041 -2.286226 -2.086978 3.629241 -2.491643 2.620082 -4.622566 7.486690 -2.409234 17.207034 -5.091330 8.239372 0.000000 0.000000 0.000000 0.000000 0.000000 0.000000 -1.207731 -0.575404 2.854696 7.548778 5.970627 3.266559 -12.737669 0.296863 -17.965288 0.000000 0.000000 0.000000 1.007395 2.376772 2.523849 -1.560729 2.720249 -1.293886 1.739166 -1.305067 0.674840 0.000000 0.000000 0.000000
146.778168 14.876589 368.173965 -1.007536 -1.974765 -3.800109 0.345100 0.548012 3.751579 0.020928 -0.082143 -0.040720 1.747809 3.558786 -1.849938 0.000000 0.000000 0.000000 1.042837 2.459777 0.072541 -0.439834 -0.925494 -0.031882 0.684896 5.980486 2.217857 -1.496550 2.375718 -5.441517 0.000000 0.000000 0.000000 0.000000 0.000000 0.000000 3.109017 -4.392302 -3.714153 6.567454 -4.100400 4.495279 -8.375775 13.131733 -3.367594 31.368690 -6.636597 15.094437 0.000000 0.000000 0.000000 0.000000 0.000000 0.000000 -1.894313 -0.760009 3.798024 15.300896 12.439038 6.029901 -24.374156 1.258185 -34.229330 0.000000 0.000000 0.000000 1.785884 4.407222 3.122078 -3.097818 5.819930 -2.549652 3.590619 -2.922783 1.625078 0.000000 0.000000 0.000000
146.660570 14.699749 368.458154 -1.417350 -2.767659 -4.721905 0.461077 0.759874 4.641568 0.031273 -0.095968 -0.057851 2.494643 5.030094 -2.691533 0.000000 0.000000 0.000000 1.469599 3.386218 0.059162 -0.610396 -1.239752 -0.015381 1.168010 7.814861 2.989500 -1.868852 5.021217 -7.751877 0.000000 0.000000 0.000000 0.000000 0.000000 0.000000 4.471724 -6.274454 -4.871200 8.538881 -4.956560 5.567311 -11.234774 17.169767 -3.482677 41.211164 -6.608252 19.612697 0.000000 0.000000 0.000000 0.000000 0.000000 0.000000 -2.103278 -0.546595 4.692259 22.366039 18.497009 7.769490 -34.120242 1.740372 -46.321265 0.000000 0.000000 0.000000 2.357251 6.085736 3.674867 -4.603493 9.114566 -3.663280 5.529890 -4.694684 2.781503 0.000000 0.000000 0.000000
146.558005 14.544734 368.678969 -1.767869 -3.437640 -5.622072 0.544507 0.932219 5.509287 0.040715 -0.094665 -0.072802 3.153542 6.303317 -3.464860 0.000000 0.000000 0.000000 1.835592 4.115340 0.018047 -0.747636 -1.454700 0.023814 1.774771 8.576146 3.435144 -1.962643 7.736407 -9.159292 0.000000 0.000000 0.000000 0.000000 0.000000 0.000000 5.759205 -7.905517 -5.556140 9.431023 -5.221105 5.841784 -13.168662 19.765631 -3.106435 47.410082 -6.316157 22.096016 0.000000 0.000000 0.000000 0.000000 0.000000 0.000000 -1.866904 0.076913 5.543352 27.636200 22.951086 8.393188 -41.869036 1.072893 -52.991141 0.000000 0.000000 0.000000 2.738887 7.409319 4.208869 -6.075927 12.388203 -4.530943 7.510725 -6.441088 4.040966 0.000000 0.000000 0.000000
146.470474 14.411543 368.836411 -2.061124 -3.989034 -6.507709 0.598535 1.066267 6.364284 0.048774 -0.079942 -0.085572 3.722140 7.384046 -4.162389 0.000000 0.000000 0.000000 2.141993 4.650384 -0.047711 -0.851422 -1.570184 0.086265 2.494183 8.161644 3.525967 -1.948045 9.482298 -9.181925 0.000000 0.000000 0.000000 0.000000 0.000000 0.000000 7.005288 -9.268914 -5.770917 9.225388 -5.009992 5.355993 -14.147450 21.051094 -2.448750 50.811028 -6.343617 22.995818 0.000000 0.000000 0.000000 0.000000 0.000000 0.000000 -1.205117 1.131422 6.345415 30.336104 25.096711 8.310437 -47.585611 -1.403411 -53.784819 0.000000 0.000000 0.000000 2.945930 8.375984 4.742217 -7.516665 15.427996 -5.064003 9.466846 -7.996828 5.282088 0.000000 0.000000 0.000000
146.383784 14.267786 368.969266 -2.326940 -4.524064 -7.729460 0.654138 1.249365 7.555337 0.048587 -0.051266 -0.095902 4.299772 8.519564 -5.025605 0.000000 0.000000 0.000000 2.092881 4.633597 0.013483 -0.561491 -2.142793 -0.664772 7.724333 5.836772 4.870450 -5.895922 19.093841 -12.222749 0.000000 0.000000 0.000000 0.000000 0.000000 0.000000 9.082455 -10.768931 -4.514887 5.599963 -3.068919 2.601486 -12.451505 19.373952 -1.734025 48.052127 -5.920718 21.759317 0.000000 0.000000 0.000000 0.000000 0.000000 0.000000 -0.813311 2.169490 6.659622 29.084484 23.758376 7.390971 -51.067501 -7.342170 -46.860263 0.000000 0.000000 0.000000 3.004061 9.240760 5.610498 -6.199614 13.760960 -4.942254 8.049382 -8.029280 3.682249 0.000000 0.000000 0.000000
146.304307 14.189130 369.029002 -2.547974 -4.895730 -8.329818 0.690821 1.408807 8.130564 0.056477 -0.014357 -0.103407 4.631603 9.173211 -5.557831 0.000000 0.000000 0.000000 2.407245 4.777656 -0.257968 -0.632199 -2.356466 -0.628159 9.563035 3.363714 4.959053 -5.196837 7.960899 -3.380897 0.000000 0.000000 0.000000 0.000000 0.000000 0.000000 10.116885 -11.027106 -3.500661 3.009007 -1.745374 0.591484 -11.478879 18.679143 -0.695551 48.369189 -7.635790 21.054455 0.000000 0.000000 0.000000 0.000000 0.000000 0.000000 2.378819 5.989505 7.470491 23.660362 18.821631 6.764618 -45.291806 -18.774281 -27.891840 0.000000 0.000000 0.000000 2.965764 9.484564 5.927307 -5.824237 17.126761 -6.221111 8.810859 -9.934877 4.247007 0.000000 0.000000 0.000000
146.258197 14.161609 368.991356 -2.672977 -5.033855 -8.656332 0.669180 1.413541 8.443763 0.045278 0.022215 -0.110520 4.702836 9.220681 -5.512778 0.000000 0.000000 0.000000 3.069571 5.325124 -0.677440 -0.912662 -2.753572 -0.295833 9.914406 2.619876 5.034291 -6.776183 2.269911 -2.001852 0.000000 0.000000 0.000000 0.000000 0.000000 0.000000 11.019831 -11.195108 -2.536554 0.612382 -0.624362 -1.537169 -8.310440 15.075107 -0.796022 46.709307 -11.630213 14.943062 0.000000 0.000000 0.000000 0.000000 0.000000 0.000000 4.639559 8.652965 7.772573 16.375688 12.567483 6.262714 -27.816190 -26.526706 -1.243083 0.000000 0.000000 0.000000 2.713973 9.010544 5.872782 -13.233959 25.574554 -4.535104 16.828049 -12.011556 9.725810 0.000000 0.000000 0.000000
146.275645 14.133211 368.857265 -2.671244 -5.007940 -8.450953 0.582989 1.206475 8.237052 0.063407 0.066004 -0.115187 4.716651 9.151975 -5.299530 0.000000 0.000000 0.000000 4.712440 6.834031 -1.908214 -1.761289 -3.815339 0.779039 5.461673 -4.164969 2.007952 -1.242340 3.229608 4.242729 0.000000 0.000000 0.000000 0.000000 0.000000 0.000000 11.789213 -11.564116 -1.976773 -1.635270 0.591433 -3.496229 -6.677187 12.979555 1.321186 28.522854 -14.508196 2.823059 0.000000 0.000000 0.000000 0.000000 0.000000 0.000000 5.265721 9.319680 7.269041 18.297180 13.958602 6.176198 -27.670815 -30.070234 4.480006 0.000000 0.000000 0.000000 2.498595 8.376964 5.533899 -13.685253 21.420429 -2.141508 16.099267 -10.239254 7.787998 0.000000 0.000000 0.000000
146.275859 14.117094 368.750195 -2.705460 -5.022659 -14.081088 0.436121 1.168143 13.863900 0.088207 0.141918 -0.116358 4.784373 9.560683 -5.792297 0.000000 0.000000 0.000000 4.197539 6.707076 -1.218012 -1.469395 -3.033024 0.679619 -2.932220 0.598631 -0.235294 6.958050 -4.914060 6.314041 0.000000 0.000000 0.000000 0.000000 0.000000 0.000000 12.138691 -11.793512 -1.768970 -3.560070 1.820429 -5.019384 -7.728833 13.405245 6.069266 -1.724043 -7.718593 -10.658156 0.000000 0.000000 0.000000 0.000000 0.000000 0.000000 6.281608 12.381276 13.361921 20.206953 16.432780 8.701978 -37.902375 -32.674564 -3.352199 0.000000 0.000000 0.000000 1.586591 7.717696 11.953948 -9.692822 19.254255 -3.469429 12.191760 -10.152253 6.810232 0.000000 0.000000 0.000000
146.332082 13.999363 368.600844 -2.617642 -4.870891 -13.949279 0.374617 1.009054 13.741276 0.123516 0.222507 -0.112873 4.692228 9.509259 -5.864914 0.000000 0.000000 0.000000 4.509517 7.088190 -1.370184 -1.465607 -3.047730 0.989609 -5.546269 -1.070396 -1.804203 8.531283 -3.091277 6.647075 0.000000 0.000000 0.000000 0.000000 0.000000 0.000000 11.886940 -11.792823 -2.030902 -4.512003 2.352512 -5.932312 -8.358606 13.159395 9.860271 -15.012108 -0.948718 -16.024040 0.000000 0.000000 0.000000 0.000000 0.000000 0.000000 6.045903 11.861949 13.685171 18.602606 15.777569 10.104403 -38.292351 -28.921195 -9.441759 0.000000 0.000000 0.000000 1.667993 7.921199 11.922552 -9.632259 18.952409 -3.754908 11.873270 -10.540130 7.358471 0.000000 0.000000 0.000000
